<svg id="Layer_1" data-name="Layer 1" xmlns="http://www.w3.org/2000/svg" viewBox="0 0 36.12 36"><defs><style>.cls-1,.cls-2,.cls-3,.cls-4,.cls-5,.cls-6{fill-rule:evenodd;}.cls-2{fill:#6f6f6d;}.cls-3{fill:#f79b3a;}.cls-4{fill:#f0f3fa;}.cls-5{fill:#fff;}.cls-6{fill:#ffcf49;}</style></defs><title>beersquare</title><path class="cls-1" d="M19.59,1.81h.72c1.26.42,2.54.81,2.4,2.64,1.47-.44,1.63.84,3.12.71a2.14,2.14,0,0,1,.72,1.57c.3.22.87.17,1,.59a3.8,3.8,0,0,1-.72,4c.17.28.83.05,1.2.13,2.07.36,3,1.83,3.24,4.08.07.36-.15,1,.12,1.2.08.48-.16,1.27.12,1.55v1.08c.07.37-.15,1,.12,1.2v2c-.31,2.69-1.7,4.31-4.32,4.68h-.72c.07.33-.15,1,.12,1.08A4.28,4.28,0,0,1,27,32.16a16.91,16.91,0,0,1-8,2.4H16.71a17.57,17.57,0,0,1-7.68-2,6.33,6.33,0,0,1,.48-4,44.48,44.48,0,0,0,.12-5.64c0-2.08.36-4.48,0-5.64-.11-.33-.19-.43-.6-.59A9.22,9.22,0,0,1,8.67,15c-1-.46-1.25-1.55-2-2.16v-.12c-.09-.85.3-1.42-.24-1.8v-.61c1-.91-.12-2.8,1.32-3.47a1,1,0,0,0,.48-1.2,2.11,2.11,0,0,1,1.92-1.8c.84.19.82-.46,1.32-.61A1.39,1.39,0,0,1,13,3.73c.95-.72,2.39-.19,3.12-1.08a1.3,1.3,0,0,1,1.2.36A4.9,4.9,0,0,1,19.59,1.81Zm2.64,1.8V3.24c-1.09-1.46-3.77-1.19-4.8.13A2.72,2.72,0,0,0,16,3.12c-.55,1-2.26.12-2.88,1.08-.56-.07-.57-.71-1.2-.71-1.2,1-4,.5-3.36,3.36A2.43,2.43,0,0,0,7.11,8.53c0,.46.41.46.48.84-.32.35-.75.6-.84,1.2s.35.53.36,1c-.8,1,1.18,2.77,1.68,2.88.58-.07,0,1.07.36,1.2,0,.85.78,1,1.08,1.55C9.78,21.29,15,22,14.91,18c1.31-.29,1.84-2.19,1.32-3.24,1.73.5,2.34-.65,3.12-1.45a2.34,2.34,0,0,0,1.2.37c.7-.77,1.47,0,2.52-.37.15-.32.19-.76.36-1.08,1.44,1.33,3.25.06,3.12-1.92a1,1,0,0,0,.72-1.55c-.08-.48.21-1.33-.24-1.45-.21-.14-.7,0-.84-.24a1.77,1.77,0,0,0-.48-1.55h-.24c-.54-.18-1.33-.12-1.56-.6-.09,0-.24,0-.24-.12-.49.06-.78.34-1.32.35C22.27,4.68,22.51,3.89,22.23,3.61Zm7,8.63c0-.12-.1-.14-.12-.23a9.81,9.81,0,0,0-2.28-.36c-.91.66-1.07,2-.72,3.47.46-.5.78-1.13,1.92-1a5.55,5.55,0,0,1,1.08,3.37c.08.4-.16,1.11.12,1.31,0,1.89.16,3.93-.72,4.92-.37.11-.39.57-.72.72a6.38,6.38,0,0,0-1,.36h-.36a8.21,8.21,0,0,0,.12,2,2,2,0,0,0,1-.12,3.4,3.4,0,0,0,3.12-2.4c.36.13.21-.26.24-.48H31c0-.38.21-.5.12-1a7.57,7.57,0,0,0,0-3v-.6c-.08-.44.16-1.19-.12-1.43-.08-.41.15-1.12-.12-1.32V15.49c-.07-.25.19-.84-.24-.72a2.27,2.27,0,0,0-.48-1.45C29.88,12.91,29.68,12.43,29.19,12.24Zm-5.4.73c-.36,0-.52,1.23-1.68.84-.71-.43-1.73.71-2.76,0a2.23,2.23,0,0,1-2.64,1.31c.51,1.91-.82,2.26-1.44,3.85s-2.08,2.85-4.08,1.79A7.78,7.78,0,0,1,10,18.6c0,1.25,0,3.41,0,5a19.27,19.27,0,0,0,0,4.8c.78,1,2.21,1.39,3.6,1.8h.12a3.51,3.51,0,0,0,1.56.24c.17.28.83.05,1.2.12h1.8c.52-.07,1.36.16,1.68-.12a10.43,10.43,0,0,0,5.52-1.8c.28-.08.32-.39.6-.48a2.1,2.1,0,0,0,0-1.56v-1.2c-.08-.64.16-1.59-.12-2,.09-1.41-.16-2.48-.12-3.84-.08-.44.15-1.19-.12-1.44V17.05c-.08-.65.16-1.6-.12-2V13.08a2.41,2.41,0,0,1-1.08.12A2.54,2.54,0,0,0,23.79,13Zm4.68,3.84c.17-1.34-.67-3-1.44-1.92-.85.15-1.08.91-1,2,.07.36-.15,1,.12,1.19v1.44c.08.65-.16,1.6.12,2v1.08c.08.41-.15,1.12.12,1.32v.48a2.34,2.34,0,0,0,2.16-2.4,13.14,13.14,0,0,0,0-4C28.51,17.72,28.74,17,28.47,16.81ZM26.79,30.36c.14-.86-.34-1.1-.36-1.8A12.55,12.55,0,0,1,18.75,31H16.23a10.6,10.6,0,0,1-6.48-2,7.07,7.07,0,0,0-.24,3.48,9.65,9.65,0,0,0,3.84,1.2c.05.27.59,0,.84.12v.12H15v.24h1.56a5.88,5.88,0,0,0,2.64,0h.48c.27-.08.94.22.84-.24.25-.07.79.15.84-.12.25-.07.79.15.84-.12,1.9-.45,4.13-.59,4.56-2.52C27.16,31.26,27.16,30.19,26.79,30.36Z"/><path class="cls-2" d="M26.79,11.28c.36.08,1-.15,1.2.13C27.62,11.33,27,11.56,26.79,11.28Z"/><path class="cls-3" d="M20.91,14.77c.21,0,.25.14.48.12q.09.55-.48.48A.46.46,0,0,1,20.91,14.77Z"/><path class="cls-2" d="M30.63,14.77c.43-.12.17.47.24.72-.36.12-.21-.27-.24-.48Z"/><path class="cls-2" d="M25.59,15c.28.44,0,1.39.12,2C25.43,16.6,25.67,15.65,25.59,15Z"/><path class="cls-2" d="M31.23,15.49c.27.16,0,.83.12,1.2C31.08,16.52,31.3,15.85,31.23,15.49Z"/><path class="cls-3" d="M19,16.93h.6C19.77,17.57,18.85,17.5,19,16.93Z"/><path class="cls-2" d="M26.07,16.93h.12v1.19C25.92,18,26.14,17.29,26.07,16.93Z"/><path class="cls-2" d="M29.07,17.53c.27.2,0,.91.12,1.31C28.91,18.64,29.15,17.93,29.07,17.53Z"/><path class="cls-4" d="M31.47,18.24c0-.17,0-.44.12-.47v1.55h-.12Z"/><path class="cls-5" d="M25.71,17.89v1.67C25.62,20.81,25.43,18.12,25.71,17.89Z"/><path class="cls-2" d="M31,17.89c.28.24,0,1,.12,1.43C30.83,19.08,31.07,18.33,31,17.89Z"/><path class="cls-2" d="M25.71,18.12c.27.25,0,1,.12,1.44h-.12Z"/><path class="cls-2" d="M28.59,18.12a13.14,13.14,0,0,1,0,4v-4Z"/><path class="cls-2" d="M31.47,19.32h.12v1.2C31.32,20.36,31.54,19.69,31.47,19.32Z"/><path class="cls-3" d="M16.11,19.44c.49-.05.76.13.72.6-.29.26-.89.09-.84-.36C16.11,19.68,16.08,19.54,16.11,19.44Z"/><path class="cls-3" d="M19.35,19.56c.33-.08.24.24.48.24-.08.29-.16.56-.48.6C19.29,20.13,19.11,19.79,19.35,19.56Z"/><path class="cls-2" d="M26.19,19.56c.27.17,0,.84.12,1.2v.84C26,21.16,26.27,20.21,26.19,19.56Z"/><path class="cls-2" d="M31.11,19.92a7.57,7.57,0,0,1,0,3v-3Z"/><path class="cls-5" d="M31.11,20.52v2A3.54,3.54,0,0,1,31.11,20.52Z"/><path class="cls-4" d="M26.31,20.76c.28.41,0,1.32.12,1.92h-.12V20.76Z"/><path class="cls-5" d="M25.83,21.24c-.08.41.15,1.12-.12,1.32C25.79,22.16,25.56,21.45,25.83,21.24Z"/><path class="cls-3" d="M17.43,22.56c-.22,0-.25-.14-.48-.12C16.78,21.47,18,21.94,17.43,22.56Z"/><path class="cls-3" d="M13.47,22.44c.32,0,.39.17.36.48h-.48C13.3,22.67,13.43,22.61,13.47,22.44Z"/><path class="cls-2" d="M26.31,22.68h.12V24C26.16,23.8,26.39,23.09,26.31,22.68Z"/><path class="cls-3" d="M20,23.28c.05.49,0,.84-.48.84a.55.55,0,0,1-.48-.48A.63.63,0,0,1,20,23.28Z"/><path class="cls-2" d="M26,23.4c.28.45,0,1.4.12,2C25.79,25,26,24.05,26,23.4Z"/><path class="cls-2" d="M10,23.64v4.8A19.27,19.27,0,0,1,10,23.64Z"/><path class="cls-3" d="M13.47,24.84c.14.36,0,.41-.12.72h-.6A.51.51,0,0,1,13.47,24.84Z"/><path class="cls-3" d="M17.55,24.84c.42-.08.43.42.24.6C17.37,25.53,17.36,25,17.55,24.84Z"/><path class="cls-3" d="M15.63,25.8c.45-.1.42.54.24.72C15.42,26.63,15.44,26,15.63,25.8Z"/><path class="cls-3" d="M21.15,25.8c.09.45-.14.59-.48.6a.67.67,0,0,1-.12-.48A.82.82,0,0,1,21.15,25.8Z"/><path class="cls-2" d="M26.07,26.64a2.1,2.1,0,0,1,0,1.56Z"/><path class="cls-5" d="M13.59,30.24c-.18-.36.78-.36.6,0h-.6Z"/><path class="cls-2" d="M26.79,30.36c.37-.17.37.9,0,.72Z"/><path class="cls-2" d="M15.27,30.48c.36.08,1-.15,1.2.12C16.1,30.53,15.44,30.76,15.27,30.48Z"/><path class="cls-2" d="M18.27,30.6c.32-.27,1.16,0,1.68-.12C19.63,30.76,18.79,30.53,18.27,30.6Z"/><path class="cls-2" d="M16.23,31.08V31h2.52v.12Z"/><path class="cls-5" d="M16.23,31.08h2.52C20.29,31.26,14.88,31.27,16.23,31.08Z"/><path class="cls-2" d="M15,33.84c.3.1,1-.23,1,.24H15Z"/><path class="cls-5" d="M18.63,34.08H17.19c0-.51,1-.11,1.44-.24Z"/><path class="cls-2" d="M19.71,34.08c-.1-.45.57-.15.84-.24C20.65,34.3,20,34,19.71,34.08Z"/><path class="cls-2" d="M16.59,34.08h2.64A5.88,5.88,0,0,1,16.59,34.08Z"/><path class="cls-4" d="M10.11,3.85c.15,0,.89-.48,1.32-.61C10.93,3.39,11,4,10.11,3.85Z"/><path class="cls-4" d="M7.71,6.85c.34-.11.36-1.66.48-1.2A1,1,0,0,1,7.71,6.85Z"/><path class="cls-2" d="M9,16.69c.41.16.49.26.6.59.36,1.16,0,3.56,0,5.64a44.48,44.48,0,0,1-.12,5.64V22.44C9.51,20.8,9.83,17.3,9,16.69Z"/><path class="cls-2" d="M8.79,14.41c.48-.43.36.75.36,1.2C8.75,15.48,9.37,14.34,8.79,14.41Z"/><path class="cls-2" d="M27.27,8.77c-.33-.24.07-1.2-.24-1.45C27.48,7.44,27.19,8.29,27.27,8.77Z"/><path class="cls-2" d="M25.47,5.53c-.82.1-1.35-.09-1.56-.6C24.14,5.41,24.93,5.35,25.47,5.53Z"/><path class="cls-5" d="M8.79,14.41c-.5-.11-2.48-1.88-1.68-2.88,0-.43-.44-.44-.36-1s.52-.85.84-1.2C7.52,9,7.09,9,7.11,8.53A2.43,2.43,0,0,1,8.55,6.85C7.94,4,10.71,4.53,11.91,3.49c.63,0,.64.64,1.2.71.62-1,2.33-.11,2.88-1.08a2.72,2.72,0,0,1,1.44.25c1-1.32,3.71-1.59,4.8-.13v.37c.08.48-.16,1.27.12,1.55.54,0,.83-.29,1.32-.35,0,.11.15.09.24.12.21.51.74.7,1.56.6h.24a1.77,1.77,0,0,1,.48,1.55c.14.22.63.1.84.24s-.09,1.21.24,1.45a1,1,0,0,1-.72,1.55c.13,2-1.68,3.25-3.12,1.92-.17.32-.21.76-.36,1.08-1.05.33-1.82-.4-2.52.37a2.34,2.34,0,0,1-1.2-.37c-.78.8-1.39,1.95-3.12,1.45.52,1.05,0,2.95-1.32,3.24.11,4-5.13,3.28-4.68-.85-.3-.57-1.06-.7-1.08-1.55C9.15,15.16,9.27,14,8.79,14.41Z"/><path class="cls-4" d="M29.07,17.53A5.55,5.55,0,0,0,28,14.16c-1.14-.17-1.46.46-1.92,1-.35-1.49-.19-2.81.72-3.47a9.81,9.81,0,0,1,2.28.36c0,.09.12.11.12.23s.77,1.14,1,1.08a2.27,2.27,0,0,1,.48,1.45V15c-.34.62.17,1.42,0,2.27.43.12.17-.47.24-.71.27.2,0,.91.12,1.32s-.16,1.19.12,1.43v1.2a3.54,3.54,0,0,0,0,2v.36c.09.46-.15.58-.12,1h-.12c0-.7-.6.42-.24.48a3.4,3.4,0,0,1-3.12,2.4c-.05-.26-.59,0-.84-.12V25h.48c0-.14-.22-.1-.36-.12a6.38,6.38,0,0,1,1-.36c0,.1-.12.12-.12.24.41-.11.92-.75.84-1,.88-1,.72-3,.72-4.92C29.11,18.44,29.34,17.73,29.07,17.53Z"/><path class="cls-5" d="M29.19,12.24c.49.19.69.67,1,1.08C30,13.38,29.17,12.4,29.19,12.24Z"/><path class="cls-5" d="M30.63,15c0,.21-.12.6.24.48v1.08c-.07.24.19.83-.24.71C30.8,16.43,30.29,15.63,30.63,15Z"/><path class="cls-5" d="M30.63,24.36c-.36-.06.2-1.18.24-.48C30.84,24.1,31,24.49,30.63,24.36Z"/><path class="cls-5" d="M28.47,23.76c.08.21-.43.85-.84,1,0-.12.1-.14.12-.24C28.08,24.33,28.1,23.87,28.47,23.76Z"/><path class="cls-4" d="M24.51,13.2a2.41,2.41,0,0,0,1.08-.12V15c.08.64-.16,1.59.12,2v.84c-.28.23-.09,2.92,0,1.67h.12c0,1.36.21,2.43.12,3.84.08.65-.16,1.6.12,2v1.08c.17.91-.82,2.38-.6,2.16A10.43,10.43,0,0,1,20,30.48c-.52.08-1.36-.15-1.68.12h-1.8c-.17-.27-.84,0-1.2-.12a3.51,3.51,0,0,1-1.56-.24h.48c.18-.36-.78-.36-.6,0-1.39-.41-2.82-.78-3.6-1.8v-4.8c0-1.63,0-3.79,0-5a7.78,7.78,0,0,0,1.2,2.16c-.31-.15-.25-.37-.36-.12A23.34,23.34,0,0,0,11,27c.73,3,9.9,2.87,12.6,1.44A4,4,0,0,0,24.75,27C24.8,22.28,24.73,17.67,24.51,13.2Zm1.2,9.36c.27-.2,0-.91.12-1.32C25.56,21.45,25.79,22.16,25.71,22.56Z"/><path class="cls-3" d="M22.11,13.81c1.16.39,1.32-.84,1.68-.84a60.33,60.33,0,0,0-.12,6.47c0,1.31.47,6.08-.84,5.76-.91-.21-.6-3.84-.6-5.28A53,53,0,0,0,22.11,13.81Z"/><path class="cls-5" d="M26.07,26.52V28.2c-.28.09-.32.4-.6.48S26.24,27.43,26.07,26.52Z"/><path class="cls-4" d="M26.07,16.93c-.12-1.13.11-1.89,1-2a1.75,1.75,0,0,0-.84,2Z"/><path class="cls-4" d="M26.67,28.32c-.27-.12-.05-.75-.12-1.08h.72c.65.1-.36.16-.6.12Z"/><path class="cls-4" d="M18.75,31a12.55,12.55,0,0,0,7.68-2.4c0,.7.5.94.36,1.8v.72c-.43,1.93-2.66,2.07-4.56,2.52-.33-.35-.79.16-1.32,0,0,.17.3.1.48.12-.05.27-.59.05-.84.12s-.94-.21-.84.24H18.63v-.24c-.43.13-1.39-.27-1.44.24H16c.07-.47-.66-.14-1-.24h-.84v-.12c1.17.07-.69-.43-.84-.12a9.65,9.65,0,0,1-3.84-1.2,7.07,7.07,0,0,1,.24-3.48,10.6,10.6,0,0,0,6.48,2v.12c-1.35.19,4.06.18,2.52,0Z"/><path class="cls-5" d="M21.39,33.72c-.18,0-.44.05-.48-.12.53.16,1-.35,1.32,0C22.18,33.87,21.64,33.65,21.39,33.72Z"/><path class="cls-5" d="M13.35,33.6c.15-.31,2,.19.84.12C13.94,33.65,13.4,33.87,13.35,33.6Z"/><path class="cls-4" d="M6.39,12.61V10.93c.54.38.15,1,.24,1.8C6.51,12.73,6.49,12.63,6.39,12.61Z"/><path class="cls-6" d="M11.19,20.76c2,1.06,3.44-.16,4.08-1.79s1.95-1.94,1.44-3.85a2.23,2.23,0,0,0,2.64-1.31c1,.71,2-.43,2.76,0a53,53,0,0,1,.12,6.11c0,1.44-.31,5.07.6,5.28,1.31.32.84-4.45.84-5.76A60.33,60.33,0,0,1,23.79,13a2.54,2.54,0,0,1,.72.23c.22,4.47.29,9.08.24,13.8a4,4,0,0,1-1.2,1.44C20.85,29.87,11.68,30,11,27a23.34,23.34,0,0,1-.12-6.36C10.94,20.39,10.88,20.61,11.19,20.76Zm9.72-5.39q.57.08.48-.48c-.23,0-.27-.14-.48-.12A.46.46,0,0,0,20.91,15.37Zm-1.32,1.56H19C18.85,17.5,19.77,17.57,19.59,16.93ZM16,19.68c-.05.45.55.62.84.36,0-.47-.23-.65-.72-.6C16.08,19.54,16.11,19.68,16,19.68Zm3.36.72c.32,0,.4-.31.48-.6-.24,0-.15-.32-.48-.24C19.11,19.79,19.29,20.13,19.35,20.4Zm-2.4,2c.23,0,.26.14.48.12C18,21.94,16.78,21.47,17,22.44Zm-3.6.48h.48c0-.31,0-.51-.36-.48C13.43,22.61,13.3,22.67,13.35,22.92Zm5.64.72a.55.55,0,0,0,.48.48c.44,0,.53-.35.48-.84A.63.63,0,0,0,19,23.64Zm-6.24,1.92h.6c.15-.31.26-.36.12-.72A.51.51,0,0,0,12.75,25.56Zm5-.12c.19-.18.18-.68-.24-.6C17.36,25,17.37,25.53,17.79,25.44Zm-1.92,1.08c.18-.18.21-.82-.24-.72C15.44,26,15.42,26.63,15.87,26.52Zm4.68-.6a.67.67,0,0,0,.12.48c.34,0,.57-.15.48-.6A.82.82,0,0,0,20.55,25.92Z"/><path class="cls-5" d="M27.51,26.76a2,2,0,0,1-1,.12,8.21,8.21,0,0,1-.12-2h.36c.14,0,.34,0,.36.12h-.48v1.68C26.92,26.72,27.46,26.5,27.51,26.76Z"/><path class="cls-4" d="M22.23,3.61c.28.28,0,1.07.12,1.55C22.07,4.88,22.31,4.09,22.23,3.61Z"/><path class="cls-4" d="M28.47,16.81c.27.2,0,.91.12,1.31v1.32A11.07,11.07,0,0,1,28.47,16.81Z"/></svg>